<?xml version="1.0" encoding="utf-8"?>
<!-- Generator: Adobe Illustrator 28.3.0, SVG Export Plug-In . SVG Version: 6.00 Build 0)  -->
<svg version="1.1" id="Ebene_1" xmlns="http://www.w3.org/2000/svg" xmlns:xlink="http://www.w3.org/1999/xlink" x="0px" y="0px"
	 viewBox="-191.55 191.55 684.73 301.64" style="enable-background:new -191.55 191.55 684.73 301.64;" xml:space="preserve">
<style type="text/css">
	.st0{fill:#FFFFFF;stroke:#12100E;stroke-linecap:round;stroke-linejoin:round;}
	.st1{fill:#808181;stroke:#12100E;stroke-width:0.5;stroke-linecap:round;stroke-linejoin:round;}
	.st2{fill:#3D3D3B;stroke:#12100E;stroke-width:0.5;stroke-linecap:round;stroke-linejoin:round;}
	.st3{fill:#DADADA;stroke:#12100E;stroke-width:0.5;stroke-linecap:round;stroke-linejoin:round;}
	.st4{fill:none;stroke:#12100E;stroke-width:0.5;stroke-linecap:round;stroke-linejoin:round;}
</style>
<g transform="rotate(90, 150.82, 342.37)">
<path class="st0" d="M17.14,498.7l1.2-286.3c-6.06-27.72-4.17-82.44,3.66-121.5c1.98-9.63,3.44-19.35,5.22-27.54
	c2.92-14.04,8.62-26.98,20.16-38.37c2.49-2.46,5.3-4.56,8.36-6.24C79.86,5.51,112.65,0.27,150.82,0
	c38.17,0.27,70.96,5.51,95.08,18.75c3.06,1.68,5.87,3.78,8.36,6.24c11.54,11.39,17.24,24.33,20.16,38.37
	c1.78,8.19,3.24,17.91,5.22,27.54c7.83,39.06,9.72,93.78,3.66,121.5l1.2,286.3c0,0.41,0.12,0.8,0.35,1.12l2.17,3.08
	c0.28,0.4,0.33,0.92,0.13,1.37l-1.94,4.48c-0.11,0.25-0.17,0.52-0.17,0.79l0.36,69.16c0.2,23.84-2.45,42.03-8.06,54.32
	c-0.66,1.42-1.24,2.88-1.77,4.35c-2.08,5.68-5.53,11.24-9.81,16.72c-0.58,0.74-1.25,1.4-2,1.97
	c-28.6,21.62-67.87,29.01-112.94,28.66c-45.07,0.35-84.34-7.04-112.94-28.66c-0.75-0.57-1.42-1.23-2-1.97
	c-4.28-5.48-7.73-11.04-9.81-16.72c-0.53-1.47-1.11-2.93-1.77-4.35c-5.61-12.29-8.26-30.48-8.06-54.32l0.36-69.16
	c0-0.27-0.06-0.54-0.17-0.79l-1.94-4.48c-0.2-0.45-0.15-0.97,0.13-1.37l2.17-3.08C17.02,499.5,17.14,499.11,17.14,498.7L17.14,498.7
	z"/>
<path class="st1" d="M34.42,298.98c0.83-45.85,2.61-88.98,5.85-128.04l-0.83-0.03l10.02-61.19c0.04-0.29,0.15-0.57,0.32-0.82
	c0.38-0.56,0.44-1.27,0.2-1.91c-2.73-7.14-3.62-14.88-0.85-23.82c0.2-0.67,0.4-1.34,0.57-2.01c1.52-5.91,4.73-14.82,7.82-23.74
	l0.53,0.77c2.07-4.35,4.88-8.28,8.05-12.02c16-16.42,46.82-21.96,84.72-22.32c37.9,0.36,68.72,5.9,84.72,22.32
	c3.17,3.74,5.98,7.67,8.06,12.02l0.52-0.77c3.09,8.92,6.3,17.83,7.82,23.74c0.17,0.67,0.37,1.34,0.57,2.01
	c2.77,8.94,1.88,16.68-0.85,23.82c-0.24,0.64-0.18,1.35,0.2,1.91c0.17,0.25,0.28,0.53,0.32,0.82l10.02,61.19l-0.83,0.03
	c3.24,39.06,5.02,82.19,5.85,128.04l1.2,185.58c-1.08,11.34-5.32,21.42-12.49,30.31c-1,1.24-2.21,2.28-3.59,3.06
	c-21.65,12.25-61.52,18.13-101.52,19.64c-40-1.51-79.87-7.39-101.52-19.64c-1.38-0.78-2.59-1.82-3.59-3.06
	c-7.17-8.89-11.41-18.97-12.49-30.31L34.42,298.98L34.42,298.98z"/>
<path class="st1" d="M20.86,598.92c10.44,43.32,26.88,52.92,47.16,64.32c19.44,10.08,52.18,14.31,82.8,14.55
	c30.62-0.24,63.36-4.47,82.8-14.55c20.28-11.4,36.72-21,47.16-64.32c-0.75,18.55-5.15,34.4-11.85,43.8
	c-0.7,0.99-1.24,1.85-1.85,2.72c-18.43,26.15-60.86,37.33-116.26,36.76c-55.4,0.57-97.83-10.61-116.26-36.76
	c-0.61-0.87-1.15-1.73-1.85-2.72C26.01,633.32,21.61,617.47,20.86,598.92z"/>
<path class="st2" d="M18.09,115.4c0.24,32.07,0.05,62.87-0.72,91.93C13.53,184.44,14.05,147.89,18.09,115.4z"/>
<path class="st2" d="M283.55,115.4c4.04,32.49,4.56,69.04,0.72,91.93C283.5,178.27,283.31,147.47,283.55,115.4z"/>
<path class="st2" d="M30.55,51.41c3.4-9.48,8.65-18.34,16.83-26.42c2.49-2.46,5.3-4.56,8.36-6.24C79.86,5.51,112.65,0.27,150.82,0
	c38.17,0.27,70.96,5.51,95.08,18.75c3.06,1.68,5.87,3.78,8.36,6.24c8.18,8.08,13.43,16.94,16.83,26.42
	c-7.03-10.93-14.82-20.22-23.71-27.12c-2.37-1.84-4.93-3.43-7.63-4.77C212.02,5.71,182.19,0.93,150.82,2.79
	c-31.37-1.86-61.2,2.92-88.93,16.73c-2.7,1.34-5.26,2.93-7.63,4.77C45.37,31.19,37.58,40.48,30.55,51.41z"/>
<path class="st3" d="M266.89,450.26h-3.61c-7.99-36.83-15.1-71.31-17.9-103.76c-0.51-7.18-0.94-14.65-1.29-22.37l21.45,10.72
	L266.89,450.26z"/>
<path class="st3" d="M245.15,187.92h0.01c5.81-1.51,11.2-2.82,15.28-3.51c0.02,0.21,0.04,0.42,0.06,0.63
	c1.85,17.63,3.02,53.27,4.2,88.8l0.5,36.29l-21.85-6.17C242.31,267.03,242.88,226.29,245.15,187.92L245.15,187.92z"/>
<path class="st3" d="M82.59,114.02c16.37,1.06,42,1.53,68.23,1.9c25.94-0.37,51.81-0.86,68.23-1.9
	c1.09,84.45,4.14,172.52,8.61,263.24c-22,2.28-48.52,3.03-76.84,3.17c-28.32-0.14-54.84-0.89-76.84-3.17
	C78.45,286.54,81.5,198.47,82.59,114.02z"/>
<path class="st3" d="M150.82,406.08c29.66-0.12,58.14-2.18,85.17-6.61c-0.14,0.26-0.18,0.59-0.09,0.95
	c8.97,30.45,15.56,67.23,21.04,106.63c-21.56,9.36-63.17,18.31-100.76,21c-3.57,0.26-7.15,0.26-10.72,0
	c-37.61-2.69-79.21-11.64-100.76-21c5.48-39.4,12.07-76.18,21.04-106.63c0.09-0.36,0.05-0.69-0.09-0.95
	C92.68,403.9,121.16,405.96,150.82,406.08L150.82,406.08z"/>
<path class="st3" d="M36.94,273.84c1.18-35.53,2.35-71.17,4.2-88.8c0.02-0.21,0.04-0.42,0.06-0.63c4.08,0.69,9.47,2,15.28,3.51h0.01
	c2.25,38,2.83,78.31,1.83,114.95l-21.86,6.18L36.94,273.84L36.94,273.84z"/>
<path class="st3" d="M36.09,335.71L57.51,325c-0.34,7.41-0.76,14.59-1.25,21.5c-2.8,32.45-9.91,66.93-17.9,103.76h-3.61
	L36.09,335.71L36.09,335.71z"/>
<path class="st3" d="M58.05,58.19c2.07-4.35,4.88-8.28,8.05-12.02c16-16.42,46.82-21.96,84.72-22.32
	c37.9,0.36,68.72,5.9,84.72,22.32c3.17,3.74,5.98,7.67,8.06,12.02c-3.71,8.37-7.79,16.24-12.83,24.09c-0.7,1.09-2.18,1.38-3.25,0.64
	l-11.82-8.13c-1.69-1.16-3.46-2.21-5.3-3.13c-16.45-8.23-36.65-12.43-59.58-12.26c-22.93-0.17-43.13,4.03-59.58,12.26
	c-1.84,0.92-3.61,1.97-5.3,3.13l-11.82,8.13c-1.07,0.74-2.55,0.45-3.25-0.64C65.83,74.43,61.75,66.56,58.05,58.19L58.05,58.19z"/>
<path class="st3" d="M73.98,377.26c4.47-90.72,7.52-178.79,8.61-263.24c16.37,1.06,42,1.53,68.23,1.9
	c25.94-0.37,51.81-0.86,68.23-1.9c1.09,84.45,4.14,172.52,8.61,263.24c-22,2.28-48.52,3.03-76.84,3.17
	C122.5,380.29,95.98,379.54,73.98,377.26z"/>
<path class="st3" d="M36.46,309.05l0.48-35.21c1.18-35.53,2.35-71.17,4.2-88.8c0.02-0.21,0.04-0.42,0.06-0.63
	c4.08,0.69,9.47,2,15.28,3.51h0.01c2.25,38,2.83,78.31,1.83,114.95L36.46,309.05z"/>
<path class="st3" d="M34.75,450.26l1.34-114.55L57.51,325c-0.34,7.41-0.76,14.59-1.25,21.5c-2.8,32.45-9.91,66.93-17.9,103.76H34.75
	L34.75,450.26z"/>
<path class="st3" d="M244.09,324.13l21.45,10.72l1.35,115.41h-3.61c-7.99-36.83-15.1-71.31-17.9-103.76
	C244.87,339.32,244.44,331.85,244.09,324.13z"/>
<path class="st3" d="M245.16,187.92c0.92-25.77,2.93-51.55,6.03-77.32c4.42,28.99,8.42,56.62,9.25,73.81
	C256.36,185.1,250.97,186.41,245.16,187.92z"/>
<path class="st3" d="M41.2,184.41c0.83-17.19,4.83-44.82,9.25-73.81c3.1,25.77,5.11,51.55,6.03,77.32
	C50.67,186.41,45.28,185.1,41.2,184.41z"/>
<path class="st4" d="M77.16,113.75c-2.51,101.71-3.68,236.53-12.49,285.1"/>
<path class="st4" d="M224.48,113.75c2.51,101.71,3.68,236.53,12.49,285.1"/>
<path class="st4" d="M70.78,664.59C61.51,625.46,54,587.3,49.96,551.08c-0.2-1.79-0.33-3.57-0.44-5.37
	c-0.65-9.95-2.4-20.77-4.79-32.1"/>
<path class="st4" d="M84.85,669.74c1.76-48.86-6.2-108.39-24.39-146.62"/>
<path class="st4" d="M33.3,485.29l-12.89,7.72c-0.98,0.58-2.15,0.74-3.24,0.44l0,0"/>
<path class="st4" d="M82.59,114.02c-0.26-0.02-0.11,0-0.37-0.02c-0.88-0.06-1.75-0.08-2.63-0.11c-8.2-0.27-13.59-3.6-16.39-9.73"/>
<path class="st4" d="M150.82,89.1c-16.99,0.44-33.61,1.12-45.72,4.86c-17.22,4.68-28.6,9.78-28.51,19.67"/>
<path class="st4" d="M25.61,71.49c3.22-9.01,6.64-17.28,10.4-24.22c1.6-2.95,3.6-5.65,5.94-8.06c7.89-8.1,18.58-16.27,30.5-24.49"/>
<line class="st4" x1="54.03" y1="67.47" x2="37.55" y2="41.45"/>
<path class="st4" d="M40.13,172.6l-9.48-2.56c-0.72-0.2-1.43-0.45-2.13-0.73c-4.44-1.78-8.06-2.11-10.47-0.33"/>
<line class="st4" x1="18.03" y1="171.12" x2="14.78" y2="172.92"/>
<path class="st4" d="M34.25,324.6c-6.65,1.44-12.21,3.64-16.41,6.78"/>
<path class="st4" d="M75.53,672.8c-28.22-11.78-48.26-29.74-51.02-60.77"/>
<path class="st4" d="M150.82,61.02c-27.39-0.81-56.64,6.33-71.45,20.01c-3.06,2.82-5.91,5.88-8.29,9.29
	c-10.9,15.63-15.18,32.07-16.33,50.44"/>
<path class="st4" d="M54.75,71.81c-1.26,3.68-2.3,7.36-3.07,11.04c-1.43,6.81-1.58,13.84-0.58,20.72c0.91,6.25,0.58,5.81,1.31,14.78
	c6.58,57.12,9.12,123.33,7.56,183.2c0.6,61.62-12.97,118.97-24.63,167.09l-2.07,7.24"/>
<line class="st4" x1="63.21" y1="104.16" x2="53.8" y2="68.14"/>
<path class="st4" d="M39.5,44.53c-8.54,33.9-12.89,64.36-13.54,96.23l-0.41,27.55l-1.69,112.43l0.53,46.92l1.22,108.12
	c0.18,4.91,0.29,9.74,0.33,14.48"/>
<path class="st4" d="M41.96,644.41c-8.3-14.19-14.76-28.9-16.66-44.89c-2.86-17.48-5.66-41.72-3.3-69.37
	c1.05-12.28,2.18-25.57,2.97-39.88c0.41-7.48,0.72-15.23,0.88-23.27"/>
<path class="st4" d="M34.93,275.76c-4.62,6.96-6.91,24.94-7.55,50.74c-0.52,21.65,0.11,48.8,1.52,79.58l1.13,44.33"/>
<path class="st4" d="M30.03,469.62l-0.07,11.23c0.03,2.19-0.04,4.38-0.21,6.56c-0.1,1.4-0.24,2.79-0.42,4.18
	c-5.13,40.91-4.66,80.22,1.13,118.01c3.59,16.1,11.04,30.88,22.36,44.34"/>
<line class="st4" x1="42.52" y1="506.07" x2="42.15" y2="509.99"/>
<line class="st4" x1="59.71" y1="321.01" x2="34.25" y2="333.67"/>
<line class="st4" x1="60" y1="305.44" x2="34.33" y2="312.84"/>
<path class="st4" d="M230.86,664.59c9.27-39.13,16.78-77.29,20.82-113.51c0.2-1.79,0.33-3.57,0.44-5.37
	c0.65-9.95,2.4-20.77,4.79-32.1"/>
<path class="st4" d="M216.79,669.74c-1.76-48.86,6.2-108.39,24.39-146.62"/>
<path class="st4" d="M268.35,485.29l12.89,7.72c0.98,0.58,2.15,0.74,3.24,0.44l0,0"/>
<path class="st4" d="M219.05,114.02c0.43-0.03-0.04,0,0.37-0.02c0.88-0.06,1.75-0.08,2.63-0.11c8.2-0.27,13.59-3.6,16.39-9.73"/>
<path class="st4" d="M150.82,89.1c16.99,0.44,33.61,1.12,45.72,4.86c17.22,4.68,28.6,9.78,28.51,19.67"/>
<path class="st4" d="M276.03,71.49c-3.22-9.01-6.64-17.28-10.4-24.22c-1.6-2.95-3.6-5.65-5.94-8.06
	c-7.89-8.1-18.58-16.27-30.5-24.49"/>
<line class="st4" x1="247.61" y1="67.47" x2="264.1" y2="41.45"/>
<path class="st4" d="M261.51,172.6l9.48-2.56c0.72-0.2,1.43-0.45,2.13-0.73c4.44-1.78,8.06-2.11,10.47-0.33"/>
<line class="st4" x1="283.61" y1="171.12" x2="286.86" y2="172.92"/>
<path class="st4" d="M267.39,324.6c6.65,1.44,12.21,3.64,16.41,6.78"/>
<path class="st4" d="M226.11,672.8c27.98-11.68,48.51-32.51,51.02-60.77"/>
<path class="st4" d="M150.82,61.02c27.39-0.81,56.64,6.33,71.45,20.01c3.06,2.82,5.91,5.88,8.29,9.29
	c10.9,15.63,15.18,32.07,16.33,50.44"/>
<path class="st4" d="M246.89,71.81c1.26,3.68,2.3,7.36,3.07,11.04c1.43,6.81,1.58,13.84,0.58,20.72c-0.91,6.25-0.58,5.81-1.31,14.78
	c-6.58,57.12-9.12,123.33-7.56,183.2c-0.6,61.62,12.97,118.97,24.63,167.09l2.07,7.24"/>
<line class="st4" x1="238.43" y1="104.16" x2="247.84" y2="68.14"/>
<path class="st4" d="M262.14,44.53c8.54,33.9,12.89,64.36,13.54,96.23l0.41,27.55l1.69,112.43l-0.53,46.92l-1.22,108.12
	c-0.18,4.91-0.29,9.74-0.33,14.48"/>
<path class="st4" d="M259.68,644.41c8.3-14.19,14.76-28.9,16.66-44.89c2.86-17.48,5.66-41.72,3.3-69.37
	c-1.05-12.28-2.18-25.57-2.97-39.88c-0.41-7.48-0.72-15.23-0.88-23.27"/>
<path class="st4" d="M266.71,275.76c4.62,6.96,6.91,24.94,7.55,50.74c0.52,21.65-0.11,48.8-1.52,79.58l-1.13,44.33"/>
<path class="st4" d="M271.61,469.62l0.07,11.23c-0.03,2.19,0.04,4.38,0.21,6.56c0.1,1.4,0.24,2.79,0.42,4.18
	c5.13,40.91,4.66,80.22-1.13,118.01c-3.59,16.1-11.04,30.88-22.36,44.34"/>
<line class="st4" x1="259.12" y1="506.07" x2="259.49" y2="509.99"/>
<line class="st4" x1="241.93" y1="321.01" x2="267.45" y2="333.7"/>
<line class="st4" x1="241.64" y1="305.44" x2="267.31" y2="312.84"/>
<path class="st4" d="M44.7,507.05c5.49-39.4,12.08-76.18,21.04-106.63c0.23-0.88-0.39-1.61-1.06-1.57
	c-0.24,0.01-0.44,0.18-0.57,0.38l0,0c-1.06,1.62-1.91,3.38-2.48,5.23c-9.58,30.83-15.35,65.27-19.1,101.61
	C43.24,506.4,43.95,506.72,44.7,507.05"/>
<path class="st4" d="M256.94,507.05c-5.49-39.4-12.08-76.18-21.04-106.63c-0.23-0.88,0.39-1.61,1.06-1.57
	c0.24,0.01,0.44,0.18,0.57,0.38l0,0c1.06,1.62,1.91,3.38,2.48,5.23c9.58,30.83,15.35,65.27,19.1,101.61
	c-0.72,0.33-1.41,0.65-2.18,0.98"/>
<line class="st4" x1="261.37" y1="170.94" x2="250.29" y2="105.29"/>
<line class="st4" x1="265.2" y1="310.13" x2="267.31" y2="310.79"/>
<line class="st4" x1="243.35" y1="303.96" x2="241.65" y2="303.48"/>
<line class="st4" x1="265.54" y1="334.85" x2="267.45" y2="335.82"/>
<line class="st4" x1="244.09" y1="324.13" x2="242.01" y2="323.07"/>
<line class="st4" x1="266.89" y1="450.26" x2="268.2" y2="450.26"/>
<line class="st4" x1="263.28" y1="450.26" x2="261.92" y2="450.26"/>
<line class="st4" x1="40.27" y1="170.94" x2="51.35" y2="105.29"/>
<line class="st4" x1="36.44" y1="310.13" x2="34.33" y2="310.79"/>
<line class="st4" x1="58.29" y1="303.96" x2="59.99" y2="303.48"/>
<line class="st4" x1="36.1" y1="334.85" x2="34.2" y2="335.82"/>
<line class="st4" x1="57.55" y1="324.13" x2="59.63" y2="323.07"/>
<line class="st4" x1="34.75" y1="450.26" x2="33.44" y2="450.26"/>
<line class="st4" x1="38.36" y1="450.26" x2="39.72" y2="450.26"/>
<path class="st1" d="M5.41,457.98l-0.97-1.44C1.55,452.23,0,447.14,0,441.92l0,0c0-0.21,0.2-0.36,0.4-0.29l25.99,8.79h3.65v19.08
	l-5.28-3.15c-5.93,1.57-11.12,0.19-15.61-3.92C7.72,461.12,6.5,459.59,5.41,457.98L5.41,457.98z"/>
<path class="st1" d="M1.3,442.92l21.74,7.27c0.86,0.29,1.44,1.09,1.44,2v9.91c0,0.78-0.31,1.52-0.87,2.06l0,0
	c-0.54,0.52-1.26,0.82-2.01,0.82l0,0c-2.92,0-5.82-0.7-8.35-2.17c-4.82-2.8-9.56-7.56-11.69-16.06c-0.29-1.17-0.51-2.56-0.25-3.84
	l0,0L1.3,442.92z"/>
<path class="st1" d="M296.23,457.98l0.97-1.44c2.89-4.31,4.44-9.4,4.44-14.62l0,0c0-0.21-0.2-0.36-0.4-0.29l-25.99,8.79h-3.65v19.08
	l5.28-3.15c5.93,1.57,11.12,0.19,15.61-3.92c1.43-1.31,2.65-2.84,3.73-4.45H296.23z"/>
<path class="st1" d="M300.34,442.92l-21.74,7.27c-0.86,0.29-1.44,1.09-1.44,2v9.91c0,0.78,0.31,1.52,0.87,2.06l0,0
	c0.54,0.52,1.26,0.82,2.01,0.82l0,0c2.92,0,5.82-0.7,8.35-2.17c4.82-2.8,9.56-7.56,11.69-16.06c0.29-1.17,0.51-2.56,0.25-3.84l0,0
	L300.34,442.92z"/>
<path class="st4" d="M24.75,466.34c1.87-2.63,1.81-8.62,1.63-15.93"/>
<path class="st4" d="M276.89,466.34c-1.87-2.63-1.81-8.62-1.63-15.93"/>
</g>
</svg>
